<svg xmlns="http://www.w3.org/2000/svg" width="190" height="120" viewBox="0 0 190 120"><g transform="translate(-180.051 -1952)"><rect width="190" height="120" transform="translate(180.051 1952)" fill="#e8f3f1"/><g transform="translate(221.051 1971.578)"><path d="M59.984,81.273a25.462,25.462,0,0,1-10.67,5.9,25.2,25.2,0,0,1-4.32.758c-15.44,1.289-30.235-11.411-35.264-30.2C4.106,36.774,12.7,16.885,29.3,12.437a25.2,25.2,0,0,1,10.589-.515,30.125,30.125,0,0,1,13.652,6.044A44.34,44.34,0,0,1,68.881,41.883c4.094,15.263.6,30.719-8.9,39.39Zm0,0" transform="translate(-6.396 -9.149)" fill="#ffeb99"/><path d="M119.113,147.247a9.587,9.587,0,0,1-3.82,2.015,8.312,8.312,0,0,1-1.515.274c-6.447.645-13.168-5.286-15.521-14.054-2.53-9.477.983-18.631,7.865-20.469a9.443,9.443,0,0,1,3.675-.242,12.129,12.129,0,0,1,5.528,2.208,20.844,20.844,0,0,1,7.849,11.83c2,7.494.194,14.828-4.062,18.438Zm0,0" transform="translate(-77.807 -91.481)" fill="#aa6100"/><path d="M273.069,46.809c0,15.811-7.768,29.833-19.808,35.748a27.582,27.582,0,0,1-12.377,2.933,28.233,28.233,0,0,1-4.642-.386,30.105,30.105,0,0,1-6.092-1.757l-2.691-1.112,2.369-1.692a26.854,26.854,0,0,0,2.482-2.015c9.51-8.687,13.007-24.143,8.913-39.407a44.238,44.238,0,0,0-15.344-23.9l-2.047-1.563,2.015-1.225a28.6,28.6,0,0,1,14.989-4.3,27.85,27.85,0,0,1,10.928,2.241A31.32,31.32,0,0,1,264,19.748a42.773,42.773,0,0,1,9.074,27.061Zm0,0" transform="translate(-178.737 -6.387)" fill="#4e901e"/><path d="M421.806,185.234a1.612,1.612,0,1,0-3.194.435,34.536,34.536,0,0,1,.314,4.675,1.612,1.612,0,1,0,3.223,0,37.752,37.752,0,0,0-.343-5.111Zm0,0" transform="translate(-334.265 -146.7)"/><path d="M356.989,87.772a1.611,1.611,0,0,0,1.026-2.036A30.588,30.588,0,0,0,342.9,67.558a1.613,1.613,0,0,0-1.41,2.9,27.355,27.355,0,0,1,13.458,16.286,1.614,1.614,0,0,0,2.036,1.029Zm0,0" transform="translate(-271.97 -53.714)"/><path d="M86.512,12.351A32.806,32.806,0,0,0,73.639,2.5,29.26,29.26,0,0,0,62.1.129,30.171,30.171,0,0,0,45.087,5.456a30.567,30.567,0,0,0-11.34-4.278,26.819,26.819,0,0,0-11.269.563C5.017,6.415-4.079,27.177,1.77,49c5,18.618,19.341,31.478,34.677,31.478q1.142,0,2.289-.1A25.857,25.857,0,0,0,48.7,77.464a29.889,29.889,0,0,0,8.543,2.842,29.36,29.36,0,0,0,18.014-2.69c12.562-6.184,20.685-20.783,20.685-37.194a44.406,44.406,0,0,0-9.432-28.071ZM42.5,76.465a23.78,23.78,0,0,1-4.041.707C23.865,78.394,9.717,66.2,4.883,48.162-.5,28.089,7.6,9.061,23.312,4.851a23.387,23.387,0,0,1,6.07-.806,24.4,24.4,0,0,1,3.868.311A28.459,28.459,0,0,1,46.173,10.1,42.677,42.677,0,0,1,60.929,33.143c3.936,14.683.624,29.514-8.439,37.789A23.679,23.679,0,0,1,42.5,76.465Zm31.32-1.739a26.066,26.066,0,0,1-16.045,2.4,26.7,26.7,0,0,1-5.745-1.671,28.26,28.26,0,0,0,2.637-2.145c9.938-9.073,13.618-25.164,9.374-41A45.907,45.907,0,0,0,48.129,7.543c-.058-.045-.117-.084-.175-.127A26.854,26.854,0,0,1,62.1,3.352a26.136,26.136,0,0,1,10.3,2.116,29.7,29.7,0,0,1,11.624,8.91,41.2,41.2,0,0,1,8.7,26.043c0,15.192-7.414,28.655-18.9,34.3Zm0,0" transform="translate(0 0)"/><path d="M109.894,109.262a13.815,13.815,0,0,0-6.255-2.487,11.181,11.181,0,0,0-4.289.294c-7.725,2.069-11.766,12.133-9.006,22.435,2.4,8.942,9.186,15.311,16.125,15.311.371,0,.741-.02,1.114-.055a11.492,11.492,0,0,0,1.773-.322,11.21,11.21,0,0,0,4.427-2.347c4.857-4.11,6.7-12.181,4.579-20.088a22.532,22.532,0,0,0-8.468-12.741Zm1.805,30.367a7.878,7.878,0,0,1-4.444,1.916c-5.707.563-11.679-4.963-13.8-12.876-2.3-8.584.718-16.878,6.728-18.487a7.933,7.933,0,0,1,2.048-.271,8.422,8.422,0,0,1,1.015.065,10.643,10.643,0,0,1,4.806,1.934,19.283,19.283,0,0,1,7.2,10.919c1.8,6.728.378,13.474-3.553,16.8Zm0,0" transform="translate(-71.45 -85.091)"/><path d="M128.406,137.19c-5.15,1.381-7.843,8.091-6,14.956a1.611,1.611,0,0,0,1.553,1.2,1.576,1.576,0,0,0,.419-.057,1.613,1.613,0,0,0,1.14-1.973c-1.332-4.975.409-10.12,3.726-11.009a1.612,1.612,0,1,0-.835-3.114Zm0,0" transform="translate(-97.281 -109.404)"/></g></g></svg>