<svg xmlns="http://www.w3.org/2000/svg" xmlns:xlink="http://www.w3.org/1999/xlink" width="190" height="124" viewBox="0 0 190 124"><defs><clipPath id="a"><rect width="190" height="124" transform="translate(1125.227 2394)" fill="#eef7fe"/></clipPath><clipPath id="b"><rect width="223.681" height="131.34" fill="none"/></clipPath><clipPath id="c"><rect width="223.681" height="131.341" fill="none"/></clipPath><clipPath id="d"><rect width="19.354" height="4.84" fill="none"/></clipPath><clipPath id="e"><rect width="95.442" height="10.068" fill="none"/></clipPath><clipPath id="f"><rect width="95.366" height="86.456" fill="none"/></clipPath><clipPath id="g"><rect width="63.647" height="83.399" fill="none"/></clipPath><clipPath id="h"><rect width="59.541" height="81.623" fill="none"/></clipPath><clipPath id="i"><rect width="95.441" height="3.875" fill="none"/></clipPath><clipPath id="j"><rect width="85.332" height="3.08" fill="none"/></clipPath><clipPath id="k"><rect width="39.121" height="74.112" fill="none"/></clipPath><clipPath id="l"><rect width="28.151" height="36.268" fill="none"/></clipPath><clipPath id="m"><rect width="15.073" height="36.235" fill="none"/></clipPath><clipPath id="n"><rect width="16.734" height="31.556" fill="none"/></clipPath><clipPath id="o"><rect width="57.619" height="30.374" fill="none"/></clipPath><clipPath id="p"><rect width="42.737" height="30.366" fill="none"/></clipPath><clipPath id="q"><rect width="64.515" height="4.39" fill="none"/></clipPath><clipPath id="r"><rect width="35.539" height="7.53" fill="none"/></clipPath><clipPath id="s"><rect width="35.289" height="7.097" fill="none"/></clipPath><clipPath id="t"><rect width="9.697" height="19.41" fill="none"/></clipPath><clipPath id="u"><rect width="8.157" height="6.086" fill="none"/></clipPath><clipPath id="v"><rect width="3.623" height="3.24" fill="none"/></clipPath><clipPath id="w"><rect width="3.022" height="10.409" fill="none"/></clipPath><clipPath id="x"><rect width="3.135" height="3.255" fill="none"/></clipPath><clipPath id="y"><rect width="3.067" height="3.24" fill="none"/></clipPath><clipPath id="z"><rect width="2.2" height="1.799" fill="none"/></clipPath></defs><g transform="translate(-1125.227 -2394)"><rect width="190" height="124" transform="translate(1125.227 2394)" fill="#eef7fe"/><g clip-path="url(#a)"><g transform="translate(1151.319 2390.33)"><g clip-path="url(#b)"><g transform="translate(0 -0.001)"><g clip-path="url(#c)"><path d="M34.383,20.305c-6.238,0-11.308,6.566-11.308,14.638s5.071,14.633,11.308,14.633h4.673V20.305Z" transform="translate(90.082 79.269)" fill="#010f19"/><path d="M29.481,36.369c-1.574,0-3.953-2.9-3.953-7.282S27.906,21.8,29.481,21.8s3.957,2.908,3.957,7.282-2.383,7.282-3.957,7.282" transform="translate(99.658 85.121)" fill="#05151e"/><path d="M35.336,20.305c-6.238,0-11.308,6.566-11.308,14.638S29.1,49.576,35.336,49.576,46.645,43.01,46.645,34.943,41.574,20.305,35.336,20.305" transform="translate(93.802 79.269)" fill="#010f19"/><path d="M20.936,43.23H59a11.838,11.838,0,0,0,8.405-3.506L72.3,34.776l47.371.378a6.2,6.2,0,0,0,2.251-.417,6.263,6.263,0,0,0,3.663-3.972L127.85,23.8H69.4l-48.46-5.4Z" transform="translate(81.732 71.821)" fill="#010f19"/><path d="M58.666,20.874V45.457a4.326,4.326,0,0,1-4.325,4.325H36.785L36.01,25.788l12.152-7.665Z" transform="translate(140.579 70.751)" fill="#05151e"/><path d="M13.88,23.177v4.585H24.409a12.1,12.1,0,0,1,1.412-5.375Z" transform="translate(54.186 87.397)" fill="#010f19"/><path d="M14.654,23.931h0a1.119,1.119,0,0,0,1.108,1.118l1.192.01a1.116,1.116,0,0,0,.025-2.231l-1.2-.015a1.117,1.117,0,0,0-1.128,1.118" transform="translate(57.207 89.06)" fill="#fc6a64"/><path d="M15.782,22.813a1.117,1.117,0,0,0-1.128,1.118,1.085,1.085,0,0,0,.172.584.912.912,0,0,0,.167.02l1.2.01a1.116,1.116,0,0,0,1.123-1.118,1.139,1.139,0,0,0-.167-.584.966.966,0,0,0-.167-.02Z" transform="translate(57.207 89.06)" fill="#fc6a64"/><path d="M44.382,20.813c-6.238,0-11.308,6.566-11.308,14.638s5.071,14.633,11.308,14.633h4.673V20.813Z" transform="translate(129.117 81.252)" fill="#072035"/><path d="M40.335,38.8c-2.373,0-5.026-3.575-5.026-8.356S37.962,22.1,40.335,22.1s5.026,3.57,5.026,8.351S42.709,38.8,40.335,38.8" transform="translate(137.842 86.257)" fill="#0b3053"/><path d="M45.336,20.813c-6.238,0-11.308,6.566-11.308,14.638S39.1,50.084,45.336,50.084s11.308-6.566,11.308-14.633S51.574,20.813,45.336,20.813" transform="translate(132.841 81.252)" fill="#072035"/><path d="M45.854,20.813c-6.238,0-11.308,6.566-11.308,14.638s5.071,14.633,11.308,14.633h4.673V20.813Z" transform="translate(134.863 81.252)" fill="#072035"/><path d="M41.807,38.8c-2.373,0-5.026-3.575-5.026-8.356S39.434,22.1,41.807,22.1s5.026,3.57,5.026,8.351S44.181,38.8,41.807,38.8" transform="translate(143.589 86.257)" fill="#0b3053"/><path d="M46.808,20.813c-6.238,0-11.308,6.566-11.308,14.638s5.071,14.633,11.308,14.633,11.308-6.566,11.308-14.633S53.046,20.813,46.808,20.813" transform="translate(138.588 81.252)" fill="#072035"/><path d="M42.549,22.226c-3.286,0-5.958,3.462-5.958,7.714s2.673,7.709,5.958,7.709,5.958-3.457,5.958-7.709-2.673-7.714-5.958-7.714" transform="translate(142.847 86.769)" fill="#1454ae"/><path d="M38.325,22.381a.875.875,0,1,0,.652.843.768.768,0,0,0-.652-.843" transform="translate(147.071 87.374)" fill="#0b3053"/><path d="M37.183,24.748a1.031,1.031,0,0,0,0,1.2.592.592,0,0,0,.461.245.585.585,0,0,0,.461-.245,1.031,1.031,0,0,0,0-1.2.572.572,0,0,0-.461-.24.579.579,0,0,0-.461.24" transform="translate(144.412 95.677)" fill="#0b3053"/><path d="M37.183,22.987a1.031,1.031,0,0,0,0,1.2.592.592,0,0,0,.461.245.585.585,0,0,0,.461-.245,1.031,1.031,0,0,0,0-1.2.572.572,0,0,0-.461-.24.579.579,0,0,0-.461.24" transform="translate(144.412 88.802)" fill="#0b3053"/><path d="M37.362,23.626a.875.875,0,1,0,.652.843.768.768,0,0,0-.652-.843" transform="translate(143.311 92.234)" fill="#0b3053"/><path d="M38.544,24.752a1.031,1.031,0,0,0,0,1.2.556.556,0,0,0,.922,0,1.031,1.031,0,0,0,0-1.2.556.556,0,0,0-.922,0" transform="translate(149.725 95.673)" fill="#0b3053"/><path d="M38.544,22.991a1.031,1.031,0,0,0,0,1.2.556.556,0,0,0,.922,0,1.031,1.031,0,0,0,0-1.2.556.556,0,0,0-.922,0" transform="translate(149.725 88.799)" fill="#0b3053"/><path d="M38.325,24.871a.875.875,0,1,0,.652.848.77.77,0,0,0-.652-.848" transform="translate(147.071 97.094)" fill="#0b3053"/><path d="M39.287,23.626a.875.875,0,0,0,0,1.692.875.875,0,0,0,0-1.692" transform="translate(150.826 92.234)" fill="#0b3053"/><path d="M40.6,22.873c-1.932,0-3.506,2.04-3.506,4.541S38.665,31.95,40.6,31.95,44.1,29.915,44.1,27.414s-1.574-4.541-3.506-4.541" transform="translate(144.799 89.294)" fill="#072035"/><path d="M44.214,20.813c-6.238,0-11.308,6.566-11.308,14.638s5.071,14.633,11.308,14.633h4.673V20.813Z" transform="translate(128.461 81.252)" fill="#072035"/><path d="M40.167,38.8c-2.373,0-5.026-3.575-5.026-8.356S37.794,22.1,40.167,22.1s5.026,3.57,5.026,8.351S42.541,38.8,40.167,38.8" transform="translate(137.186 86.257)" fill="#0b3053"/><path d="M45.168,20.813c-6.238,0-11.308,6.566-11.308,14.638s5.071,14.633,11.308,14.633,11.308-6.566,11.308-14.633S51.406,20.813,45.168,20.813" transform="translate(132.185 81.252)" fill="#072035"/><path d="M45.854,20.813c-6.238,0-11.308,6.566-11.308,14.638s5.071,14.633,11.308,14.633h4.673V20.813Z" transform="translate(134.863 81.252)" fill="#072035"/><path d="M41.807,38.8c-2.373,0-5.026-3.575-5.026-8.356S39.434,22.1,41.807,22.1s5.026,3.57,5.026,8.351S44.181,38.8,41.807,38.8" transform="translate(143.589 86.257)" fill="#0b3053"/><path d="M46.808,20.813c-6.238,0-11.308,6.566-11.308,14.638s5.071,14.633,11.308,14.633,11.308-6.566,11.308-14.633S53.046,20.813,46.808,20.813" transform="translate(138.588 81.252)" fill="#072035"/><path d="M42.549,22.226c-3.286,0-5.958,3.462-5.958,7.714s2.673,7.709,5.958,7.709,5.958-3.457,5.958-7.709-2.673-7.714-5.958-7.714" transform="translate(142.847 86.769)" fill="#1454ae"/><path d="M38.325,22.381a.875.875,0,1,0,.652.843.768.768,0,0,0-.652-.843" transform="translate(147.071 87.374)" fill="#0b3053"/><path d="M37.183,24.748a1.031,1.031,0,0,0,0,1.2.592.592,0,0,0,.461.245.585.585,0,0,0,.461-.245,1.031,1.031,0,0,0,0-1.2.572.572,0,0,0-.461-.24.579.579,0,0,0-.461.24" transform="translate(144.412 95.677)" fill="#0b3053"/><path d="M37.183,22.987a1.031,1.031,0,0,0,0,1.2.592.592,0,0,0,.461.245.585.585,0,0,0,.461-.245,1.031,1.031,0,0,0,0-1.2.572.572,0,0,0-.461-.24.579.579,0,0,0-.461.24" transform="translate(144.412 88.802)" fill="#0b3053"/><path d="M37.362,23.626a.875.875,0,1,0,.652.843.768.768,0,0,0-.652-.843" transform="translate(143.311 92.234)" fill="#0b3053"/><path d="M38.544,24.752a1.031,1.031,0,0,0,0,1.2.556.556,0,0,0,.922,0,1.031,1.031,0,0,0,0-1.2.556.556,0,0,0-.922,0" transform="translate(149.725 95.673)" fill="#0b3053"/><path d="M38.544,22.991a1.031,1.031,0,0,0,0,1.2.556.556,0,0,0,.922,0,1.031,1.031,0,0,0,0-1.2.556.556,0,0,0-.922,0" transform="translate(149.725 88.799)" fill="#0b3053"/><path d="M38.325,24.871a.875.875,0,1,0,.652.848.77.77,0,0,0-.652-.848" transform="translate(147.071 97.094)" fill="#0b3053"/><path d="M39.287,23.626a.875.875,0,0,0,0,1.692.875.875,0,0,0,0-1.692" transform="translate(150.826 92.234)" fill="#0b3053"/><path d="M40.6,22.873c-1.932,0-3.506,2.04-3.506,4.541S38.665,31.95,40.6,31.95,44.1,29.915,44.1,27.414s-1.574-4.541-3.506-4.541" transform="translate(144.799 89.294)" fill="#072035"/><path d="M42.409,20.813h13.1c-5.326.034-9.656,6.841-9.656,15.207v.01a.885.885,0,0,1-.883.9h-.853s-11.4-.6-11.4-.907c0-8.386,4.35-15.207,9.69-15.207" transform="translate(127.731 81.252)" fill="#0b3053"/><path d="M42.38,20.781l12.941.162c-5.326.029-9.656,6.841-9.656,15.2,0,.309,0,.608.02.907H33.435a.906.906,0,0,1-.907-.9v0c0-8.386,4.512-15.369,9.852-15.369" transform="translate(126.985 81.127)" fill="#010f19"/><path d="M49.575,17.617V33.133l-5.041-6.713-.912.912,5.34,7.106a2.046,2.046,0,0,0,1.638.819h2.025a.758.758,0,0,0,.76-.76V18.367a.753.753,0,0,0-.75-.75Z" transform="translate(170.295 68.776)" fill="#05151e"/><path d="M25.373,96l95.439.912V5.183L25.373,0Z" transform="translate(99.053 0)" fill="#1473fa"/><path d="M25.373,92.111l95.439.912V6.175L25.373,1Z" transform="translate(99.053 3.892)" fill="#6eb6ff"/><path d="M10.469,94.875V2.256L83.557,0V96Z" transform="translate(40.871 0)" fill="#1473fa"/><path d="M10.469,90.983V3.253L83.557,1V92.111Z" transform="translate(40.871 3.892)" fill="#8ec3f7"/><g transform="translate(105.072 91.163)" opacity="0.3" style="mix-blend-mode:multiply;isolation:isolate"><g clip-path="url(#d)"><path d="M21.794,18.59H40.782v4.84l-19.356-.3Z" transform="translate(-21.426 -18.59)" fill="#8ec3f7"/></g></g><g transform="translate(124.426 0.001)" opacity="0.25" style="mix-blend-mode:multiply;isolation:isolate"><g transform="translate(0 0)"><g clip-path="url(#e)"><path d="M25.373,0V4.889l95.439,5.178V5.183Z" transform="translate(-25.373 0)" fill="#1473fa"/></g></g></g><path d="M25.373,87.271l95.439.912V6.175L25.373,1Z" transform="translate(99.053 3.892)" fill="#8ec3f7"/><g transform="translate(124.501 5.567)" opacity="0.2" style="mix-blend-mode:screen;isolation:isolate"><g clip-path="url(#f)"><path d="M25.388,86.678V1.135l95.366,5.178V87.591Z" transform="translate(-25.388 -1.134)" fill="#8ec3f7"/></g></g><g transform="translate(124.501 7.868)" opacity="0.15" style="mix-blend-mode:screen;isolation:isolate"><g clip-path="url(#g)"><path d="M89.036,2.757,67.777,1.6,25.388,70.715V84.848l16.3.152Z" transform="translate(-25.388 -1.603)" fill="#8ec3f7"/></g></g><g transform="translate(160.326 10.217)" opacity="0.15" style="mix-blend-mode:screen;isolation:isolate"><g clip-path="url(#h)"><path d="M32.694,83.321l40.452.387,19.091-33.16V2.613l-9.719-.53Z" transform="translate(-32.694 -2.084)" fill="#8ec3f7"/></g></g><g transform="translate(124.426 92.291)" opacity="0.3" style="mix-blend-mode:screen;isolation:isolate"><g clip-path="url(#i)"><path d="M25.373,18.82v2.962l95.439.912V19.732Z" transform="translate(-25.373 -18.82)" fill="#8ec3f7"/></g></g><path d="M30.007,20.348h0a1.48,1.48,0,0,0,1.466,1.481l1.584.015a1.481,1.481,0,0,0,.029-2.962L31.5,18.867a1.483,1.483,0,0,0-1.5,1.481" transform="translate(117.144 73.655)" fill="#fc6a64"/><path d="M31.86,20.366h0a1.48,1.48,0,0,0,1.466,1.481l1.584.015A1.481,1.481,0,0,0,34.94,18.9l-1.584-.015a1.483,1.483,0,0,0-1.5,1.481" transform="translate(124.378 73.726)" fill="#fc6a64"/><path d="M33.714,20.383h0a1.48,1.48,0,0,0,1.466,1.481l1.584.015a1.481,1.481,0,0,0,.029-2.962L35.21,18.9a1.483,1.483,0,0,0-1.5,1.481" transform="translate(131.615 73.792)" fill="#fc6a64"/><path d="M26.3,20.312h0a1.48,1.48,0,0,0,1.466,1.481l1.584.015a1.481,1.481,0,0,0,.029-2.962L27.8,18.831a1.483,1.483,0,0,0-1.5,1.481" transform="translate(102.672 73.515)" fill="#fc6a64"/><path d="M28.153,20.33h0a1.48,1.48,0,0,0,1.466,1.481l1.584.015a1.481,1.481,0,0,0,.029-2.962l-1.584-.015a1.483,1.483,0,0,0-1.5,1.481" transform="translate(109.906 73.585)" fill="#fc6a64"/><path d="M39.275,20.436h0a1.477,1.477,0,0,0,1.466,1.481l1.584.015a1.481,1.481,0,0,0,.029-2.962l-1.584-.015a1.483,1.483,0,0,0-1.5,1.481" transform="translate(153.325 73.999)" fill="#fc6a64"/><path d="M41.128,20.454h0a1.477,1.477,0,0,0,1.466,1.481l1.584.015a1.481,1.481,0,0,0,.029-2.962l-1.584-.015a1.483,1.483,0,0,0-1.5,1.481" transform="translate(160.559 74.069)" fill="#fc6a64"/><path d="M42.982,20.472h0a1.477,1.477,0,0,0,1.466,1.481l1.584.015a1.481,1.481,0,0,0,.029-2.962l-1.584-.015a1.483,1.483,0,0,0-1.5,1.481" transform="translate(167.797 74.139)" fill="#fc6a64"/><path d="M35.568,20.4h0a1.48,1.48,0,0,0,1.466,1.481l1.584.015a1.481,1.481,0,0,0,.029-2.962l-1.584-.015a1.483,1.483,0,0,0-1.5,1.481" transform="translate(138.853 73.862)" fill="#fc6a64"/><path d="M37.421,20.419h0A1.48,1.48,0,0,0,38.887,21.9l1.584.015a1.481,1.481,0,0,0,.029-2.962l-1.584-.015a1.483,1.483,0,0,0-1.5,1.481" transform="translate(146.087 73.933)" fill="#fc6a64"/><g transform="translate(128.971 92.348)" opacity="0.4" style="mix-blend-mode:screen;isolation:isolate"><g clip-path="url(#j)"><path d="M31.5,18.867a1.48,1.48,0,0,0-1.5,1.481,1.447,1.447,0,0,0,.226.775,1.126,1.126,0,0,0,.221.025l1.584.015a1.48,1.48,0,0,0,1.5-1.481,1.447,1.447,0,0,0-.226-.775,1.6,1.6,0,0,0-.221-.025Z" transform="translate(-11.827 -18.693)" fill="#fc6a64"/><path d="M33.356,18.885a1.48,1.48,0,0,0-1.5,1.481,1.447,1.447,0,0,0,.226.775,1.127,1.127,0,0,0,.221.025l1.584.015a1.48,1.48,0,0,0,1.5-1.481,1.447,1.447,0,0,0-.226-.775,1.6,1.6,0,0,0-.221-.025Z" transform="translate(-4.593 -18.623)" fill="#fc6a64"/><path d="M35.21,18.9a1.48,1.48,0,0,0-1.5,1.481,1.447,1.447,0,0,0,.226.775,1.127,1.127,0,0,0,.221.025l1.584.015a1.48,1.48,0,0,0,1.5-1.481,1.447,1.447,0,0,0-.226-.775,1.518,1.518,0,0,0-.221-.025Z" transform="translate(2.645 -18.556)" fill="#fc6a64"/><path d="M27.795,18.832a1.48,1.48,0,0,0-1.5,1.481,1.447,1.447,0,0,0,.226.775,1.127,1.127,0,0,0,.221.025l1.584.015a1.48,1.48,0,0,0,1.5-1.481,1.447,1.447,0,0,0-.226-.775,1.6,1.6,0,0,0-.221-.025Z" transform="translate(-26.302 -18.829)" fill="#fc6a64"/><path d="M29.649,18.849a1.48,1.48,0,0,0-1.5,1.481,1.447,1.447,0,0,0,.226.775,1.127,1.127,0,0,0,.221.025l1.584.015a1.48,1.48,0,0,0,1.5-1.481,1.447,1.447,0,0,0-.226-.775,1.6,1.6,0,0,0-.221-.025Z" transform="translate(-19.065 -18.763)" fill="#fc6a64"/><path d="M40.77,18.956a1.48,1.48,0,0,0-1.5,1.481,1.447,1.447,0,0,0,.226.775,1.127,1.127,0,0,0,.221.025l1.584.015a1.479,1.479,0,0,0,1.5-1.476v0A1.447,1.447,0,0,0,42.574,19a1.517,1.517,0,0,0-.221-.025Z" transform="translate(24.35 -18.345)" fill="#fc6a64"/><path d="M42.624,18.973a1.48,1.48,0,0,0-1.5,1.481,1.447,1.447,0,0,0,.226.775,1.127,1.127,0,0,0,.221.025l1.584.015a1.479,1.479,0,0,0,1.5-1.476v0a1.447,1.447,0,0,0-.226-.775,1.6,1.6,0,0,0-.221-.025Z" transform="translate(31.588 -18.279)" fill="#fc6a64"/><path d="M44.477,18.991a1.48,1.48,0,0,0-1.5,1.481,1.447,1.447,0,0,0,.226.775,1.126,1.126,0,0,0,.221.025l1.584.02a1.483,1.483,0,0,0,1.5-1.481v0a1.447,1.447,0,0,0-.226-.775,1.6,1.6,0,0,0-.221-.025Z" transform="translate(38.822 -18.209)" fill="#fc6a64"/><path d="M37.063,18.92a1.48,1.48,0,0,0-1.5,1.481,1.447,1.447,0,0,0,.226.775,1.126,1.126,0,0,0,.221.025l1.584.015a1.479,1.479,0,0,0,1.5-1.476v0a1.447,1.447,0,0,0-.226-.775,1.6,1.6,0,0,0-.221-.025Z" transform="translate(9.879 -18.486)" fill="#fc6a64"/><path d="M38.917,18.938a1.48,1.48,0,0,0-1.5,1.481,1.447,1.447,0,0,0,.226.775,1.127,1.127,0,0,0,.221.025l1.584.015a1.479,1.479,0,0,0,1.5-1.476v0a1.447,1.447,0,0,0-.226-.775,1.6,1.6,0,0,0-.221-.025Z" transform="translate(17.117 -18.416)" fill="#fc6a64"/></g></g><path d="M41.873,21.178v27.28a4.8,4.8,0,0,1-4.8,4.8H17.589l-.858-26.628,13.486-8.508Z" transform="translate(65.316 70.751)" fill="#072035"/><path d="M28.43,19.622c-7.944,0-12.27,7.738-12.27,17.252s4.325,10.857,12.27,10.857,14.393-1.344,14.393-10.857S36.369,19.622,28.43,19.622" transform="translate(63.087 76.603)" fill="#010f19"/><path d="M27.139,20.813c-6.238,0-11.308,6.566-11.308,14.638S20.9,50.084,27.139,50.084h4.673V20.813Z" transform="translate(61.802 81.252)" fill="#072035"/><path d="M23.091,38.8c-2.373,0-5.026-3.575-5.026-8.356S20.718,22.1,23.091,22.1s5.026,3.57,5.026,8.351S25.465,38.8,23.091,38.8" transform="translate(70.524 86.257)" fill="#0b3053"/><path d="M28.093,20.813c-6.238,0-11.308,6.566-11.308,14.638s5.071,14.633,11.308,14.633S39.4,43.518,39.4,35.451,34.331,20.813,28.093,20.813" transform="translate(65.527 81.252)" fill="#072035"/><path d="M23.834,22.226c-3.286,0-5.958,3.462-5.958,7.714s2.673,7.709,5.958,7.709,5.958-3.457,5.958-7.709-2.673-7.714-5.958-7.714" transform="translate(69.786 86.769)" fill="#1454ae"/><path d="M19.61,22.381a.875.875,0,0,0,0,1.692.875.875,0,0,0,0-1.692" transform="translate(74.01 87.374)" fill="#0b3053"/><path d="M18.468,24.748a1.031,1.031,0,0,0,0,1.2.592.592,0,0,0,.461.245.585.585,0,0,0,.461-.245,1.031,1.031,0,0,0,0-1.2.572.572,0,0,0-.461-.24.579.579,0,0,0-.461.24" transform="translate(71.351 95.677)" fill="#0b3053"/><path d="M18.468,22.987a1.031,1.031,0,0,0,0,1.2.592.592,0,0,0,.461.245.585.585,0,0,0,.461-.245,1.031,1.031,0,0,0,0-1.2.572.572,0,0,0-.461-.24.579.579,0,0,0-.461.24" transform="translate(71.351 88.802)" fill="#0b3053"/><path d="M18.647,23.626a.875.875,0,0,0,0,1.692.875.875,0,0,0,0-1.692" transform="translate(70.25 92.234)" fill="#0b3053"/><path d="M19.829,24.752a1.031,1.031,0,0,0,0,1.2.556.556,0,0,0,.922,0,1.031,1.031,0,0,0,0-1.2.556.556,0,0,0-.922,0" transform="translate(76.664 95.673)" fill="#0b3053"/><path d="M19.829,22.991a1.031,1.031,0,0,0,0,1.2.556.556,0,0,0,.922,0,1.031,1.031,0,0,0,0-1.2.556.556,0,0,0-.922,0" transform="translate(76.664 88.799)" fill="#0b3053"/><path d="M19.61,24.871a.875.875,0,0,0,0,1.692.875.875,0,0,0,0-1.692" transform="translate(74.01 97.094)" fill="#0b3053"/><path d="M20.572,23.626a.875.875,0,0,0,0,1.692.875.875,0,0,0,0-1.692" transform="translate(77.765 92.234)" fill="#0b3053"/><path d="M21.882,22.873c-1.932,0-3.506,2.04-3.506,4.541s1.574,4.536,3.506,4.536,3.506-2.035,3.506-4.536-1.574-4.541-3.506-4.541" transform="translate(71.738 89.294)" fill="#072035"/><path d="M16.906,20.305C10.669,20.305,5.6,26.871,5.6,34.943s5.071,14.633,11.308,14.633H21.58V20.305Z" transform="translate(21.854 79.269)" fill="#010f19"/><path d="M12.008,36.369c-1.579,0-3.957-2.9-3.957-7.282S10.429,21.8,12.008,21.8s3.953,2.908,3.953,7.282-2.383,7.282-3.953,7.282" transform="translate(31.43 85.121)" fill="#05151e"/><path d="M17.86,20.305c-6.238,0-11.308,6.566-11.308,14.638S11.623,49.576,17.86,49.576,29.169,43.01,29.169,34.943,24.1,20.305,17.86,20.305" transform="translate(25.578 79.269)" fill="#010f19"/><path d="M53.044,15.441c-2.02,1.108-5.483,1.971-11.485,1.971-1.574,0-3.585.034-5.914.064-1.849.034-3.84.064-5.919.083l-1.648.015H26.735c-.451,0-.907,0-1.363,0-1.594,0-3.075-.01-4.458-.034-.137,0-.275,0-.407,0l-.858-.015c-.765-.015-1.505-.034-2.207-.059l-1.211-.044c-1.177-.039-2.251-.1-3.237-.162l-.485-.029c-.319-.025-.628-.044-.922-.064h-.015c-.294-.029-.579-.049-.853-.074-.049,0-.1,0-.147-.01q-.721-.066-1.353-.132l-.064,0c-.368-.044-.711-.083-1.04-.127-.667-.083-1.246-.172-1.765-.26-2.285-.4-3.237-.853-3.619-1.2l-.049-.039-.039-.034a2.022,2.022,0,0,1-.152-.137c16.394-2.648,33.675-.971,50.554.289" transform="translate(9.721 53.661)" fill="#0b3053"/><path d="M16.493,12.548a17.334,17.334,0,0,0-3.31.333c-4.673.912-8.116,3.428-7.689,5.62.324,1.653,2.751,2.648,5.929,2.648a17.313,17.313,0,0,0,3.31-.329c4.673-.917,8.116-3.433,7.689-5.625-.324-1.653-2.751-2.648-5.929-2.648" transform="translate(21.306 48.987)" fill="#0b3053"/><path d="M6.11,13.12A9.047,9.047,0,0,1,11,15.954a22.029,22.029,0,0,1,8.121-2.094" transform="translate(23.853 51.22)" fill="none" stroke="#0b3053" stroke-miterlimit="10" stroke-width="4"/><path d="M29.953,26.676v3.188c-.652.029-21.038,1.363-22.3,1.344v-5.1A7.75,7.75,0,0,1,12.48,18.84a5.59,5.59,0,0,1-1.162-3.4,5.1,5.1,0,0,1,5.036-5.193c.064,0,.127.01.191.01l4.516.162a5.518,5.518,0,0,1,5.218,5.512,5.21,5.21,0,0,1-1.157,3.3,8.217,8.217,0,0,1,4.83,7.449" transform="translate(29.884 40.008)" fill="#0b3053"/><path d="M19.291,10.326c-.814,4.541-1.785,10.3-2.344,14.354-.152,1.089-.466,3.359-4.463,4.8V25.808a7.757,7.757,0,0,1,4.825-7.272,5.579,5.579,0,0,1-1.162-3.4,5.17,5.17,0,0,1,3.143-4.811" transform="translate(48.736 40.312)" fill="#0b3053"/><path d="M3.319,26.032h0A2.758,2.758,0,0,1,.563,23.276V12.988a2.756,2.756,0,0,1,5.512,0V23.276a2.758,2.758,0,0,1-2.756,2.756" transform="translate(2.198 39.945)" fill="#05151e"/><path d="M1.172,13.272v8.69a1.872,1.872,0,0,0,1.682,1.863l4.958.505" transform="translate(4.575 51.813)" fill="none" stroke="#05151e" stroke-miterlimit="10" stroke-width="2.344"/><path d="M3.562,18.469h0a1.383,1.383,0,0,1-1.383-1.378v-.535a1.38,1.38,0,1,1,2.761,0v.535a1.379,1.379,0,0,1-1.378,1.378" transform="translate(8.507 59.238)" fill="#05151e"/><path d="M99.363,17.038a11.136,11.136,0,0,0-3.2-6.434A10.209,10.209,0,0,0,89.9,7.917s-16.168-.569-19.189-.535c-10.705.118-35.96-.093-42.629.275a40.885,40.885,0,0,0-12.6,2.4,12.643,12.643,0,0,0-6.12,5.625C5.238,24.556,3.438,34.466,2.394,44.186A142.546,142.546,0,0,0,2.9,78.238l59.857,3.6H75.28a1.5,1.5,0,0,0,1.461-1.157l1.5-6.311A13.744,13.744,0,0,1,90.664,63.831l10.234-.716c-.49-11.509-.618-41.237-1.535-46.077m-36.823.407c-.848,4.443-2.383,13.187-3.148,18.733-.23,1.662-.839,6.086-14.4,6.086-1.574,0-3.585.029-5.919.064-3.1.049-6.62.1-10.269.1h0c-17.58,0-21.729-1.393-22.641-2.221l-.039-.039-.044-.034a2.5,2.5,0,0,1-.9-2.369A121.191,121.191,0,0,1,8.705,23.158a65.929,65.929,0,0,1,2.937-7.4,3.221,3.221,0,0,1,1.628-1.6,14.983,14.983,0,0,1,5.458-1.005c2.089-.069,5.031-.255,8.44-.466,6.8-.427,29.816-.814,32.331-.525l.235.025a3.275,3.275,0,0,1,2.467,1c.6.8.716,2.28.338,4.271m3.119,29.266c-.186-9.695.132-20.871,3.031-30.463a5.4,5.4,0,0,1,4.61-3.83,80.03,80.03,0,0,1,16.041-.2,4.562,4.562,0,0,1,4.026,4.188,98.18,98.18,0,0,1-.029,17.821A2.831,2.831,0,0,1,91.272,36.6c-.211.054-.427.118-.652.177A35.738,35.738,0,0,0,83.2,39.738L67.841,47.986a1.48,1.48,0,0,1-2.182-1.275" transform="translate(6.291 28.814)" fill="#fcbf38"/><path d="M26.274,26.567v5.076l-9.386,5.036A1.48,1.48,0,0,1,14.706,35.4c-.152-7.944.029-16.879,1.7-25.127l.976.034A5.518,5.518,0,0,1,22.6,15.822a5.21,5.21,0,0,1-1.157,3.3,8.217,8.217,0,0,1,4.83,7.449" transform="translate(57.244 40.117)" fill="#0b3053"/><g transform="translate(68.067 36.538)" opacity="0.3" style="mix-blend-mode:multiply;isolation:isolate"><g clip-path="url(#k)"><path d="M51.469,16.765a11.194,11.194,0,0,0-3.2-6.434A10.21,10.21,0,0,0,42,7.643s-14.123-.6-18.193.314c-2.065.466-4.472,2.859-5.35,5.311-3.492,9.754-4.58,56.571-4.58,68.218l.986.074H27.381a1.506,1.506,0,0,0,1.466-1.152l1.5-6.311A13.759,13.759,0,0,1,42.765,63.552L53,62.841c-.49-11.509-.618-41.237-1.53-46.077M45.442,33.958a2.843,2.843,0,0,1-2.069,2.369c-.206.054-.427.118-.647.177a35.63,35.63,0,0,0-7.415,2.962L19.947,47.713a1.482,1.482,0,0,1-2.182-1.275c-.186-9.695.128-20.871,3.026-30.463a5.412,5.412,0,0,1,4.61-3.83,80.087,80.087,0,0,1,16.045-.2,4.557,4.557,0,0,1,4.021,4.188,97.7,97.7,0,0,1-.025,17.821" transform="translate(-13.877 -7.45)" fill="#fcbf38"/></g></g><path d="M31.992,18.109h0c.309,0,.613,0,.912,0,.108,2.525.128,4.879.064,6.949a45.354,45.354,0,0,0-5.35,2.442l-2.81,1.505a70.1,70.1,0,0,1,1.564-10.69c1.687-.118,3.629-.211,5.62-.211m0-9.808c-3.688,0-7.194.275-9.646.525a5.4,5.4,0,0,0-4.61,3.83c-2.9,9.592-3.217,20.763-3.031,30.463a1.478,1.478,0,0,0,2.187,1.27l15.359-8.243a35.509,35.509,0,0,1,7.42-2.962c.221-.064.441-.123.647-.181a2.831,2.831,0,0,0,2.069-2.364,97.756,97.756,0,0,0,.025-17.826A4.557,4.557,0,0,0,38.387,8.63,56.4,56.4,0,0,0,31.992,8.3" transform="translate(57.244 32.407)" fill="#072035"/><path d="M42.379,11.908a4.559,4.559,0,0,0-1.913-3.374,4.51,4.51,0,0,1,.53,1.81c.333,4.389.721,11.99-.025,17.821A2.843,2.843,0,0,1,38.9,30.533c-.206.054-.427.113-.647.177a35.671,35.671,0,0,0-7.42,2.962L15.471,41.915a1.476,1.476,0,0,1-.8.177v.118a1.48,1.48,0,0,0,2.182,1.275l15.364-8.243a35.419,35.419,0,0,1,7.42-2.967q.331-.088.647-.177a2.837,2.837,0,0,0,2.069-2.369,98.592,98.592,0,0,0,.025-17.821" transform="translate(57.278 33.317)" fill="#072035"/><g transform="translate(71.908 40.71)" opacity="0.85"><g clip-path="url(#l)"><path d="M14.706,43.118c-.186-9.695.132-20.871,3.031-30.463a5.4,5.4,0,0,1,4.61-3.83,80.03,80.03,0,0,1,16.041-.2,4.562,4.562,0,0,1,4.026,4.188,98.18,98.18,0,0,1-.029,17.821,2.831,2.831,0,0,1-2.065,2.369c-.211.054-.427.118-.652.177a35.738,35.738,0,0,0-7.415,2.962L16.888,44.393a1.48,1.48,0,0,1-2.182-1.275" transform="translate(-14.664 -8.301)" fill="#81bcf7"/></g></g><g transform="translate(71.909 40.742)" opacity="0.2" style="mix-blend-mode:screen;isolation:isolate"><g clip-path="url(#m)"><path d="M24.216,8.627l-9.366,22.5c-.211,4.095-.216,8.145-.142,11.965a1.48,1.48,0,0,0,2.182,1.275l1.226-.657,11.622-35.4c-2.011.059-3.9.181-5.522.319" transform="translate(-14.662 -8.308)" fill="#81bcf7"/></g></g><g transform="translate(81.804 40.763)" opacity="0.2" style="mix-blend-mode:screen;isolation:isolate"><g clip-path="url(#n)"><path d="M27.838,34.479l5.576-24.362a4.545,4.545,0,0,0-2.9-1.53c-1.216-.137-2.472-.226-3.722-.275L16.682,39.319a5.612,5.612,0,0,0,.677.549L24.376,36.1a35.866,35.866,0,0,1,3.462-1.623" transform="translate(-16.68 -8.313)" fill="#81bcf7"/></g></g><path d="M31.992,8.3c-3.688,0-7.194.275-9.646.525a5.4,5.4,0,0,0-4.61,3.83c-2.9,9.592-3.217,20.763-3.031,30.463a1.478,1.478,0,0,0,2.187,1.27l15.359-8.243a35.509,35.509,0,0,1,7.42-2.962c.221-.064.441-.123.647-.181a2.831,2.831,0,0,0,2.069-2.364,97.756,97.756,0,0,0,.025-17.826A4.557,4.557,0,0,0,38.387,8.63,56.4,56.4,0,0,0,31.992,8.3" transform="translate(57.244 32.407)" fill="#072035"/><path d="M42.379,11.908a4.559,4.559,0,0,0-1.913-3.374,4.51,4.51,0,0,1,.53,1.81c.333,4.389.721,11.99-.025,17.821A2.843,2.843,0,0,1,38.9,30.533c-.206.054-.427.113-.647.177a35.671,35.671,0,0,0-7.42,2.962L15.471,41.915a1.476,1.476,0,0,1-.8.177v.118a1.48,1.48,0,0,0,2.182,1.275l15.364-8.243a35.419,35.419,0,0,1,7.42-2.967q.331-.088.647-.177a2.837,2.837,0,0,0,2.069-2.369,98.592,98.592,0,0,0,.025-17.821" transform="translate(57.278 33.317)" fill="#072035"/><path d="M19.97,29.945h0A3.526,3.526,0,0,0,23.5,26.419V13.252a3.526,3.526,0,0,0-7.052,0V26.419a3.526,3.526,0,0,0,3.526,3.526" transform="translate(64.195 37.97)" fill="#05151e"/><path d="M23.868,13.616V24.738a2.4,2.4,0,0,1-2.153,2.383l-6.346.647" transform="translate(60.003 53.156)" fill="none" stroke="#05151e" stroke-miterlimit="10" stroke-width="3"/><path d="M16.858,20.267h0A1.764,1.764,0,0,0,18.624,18.5v-.687a1.765,1.765,0,1,0-3.531,0V18.5a1.764,1.764,0,0,0,1.765,1.765" transform="translate(58.921 62.658)" fill="#05151e"/><path d="M58.4,8.095c-11.813-.593-32.939.711-41.045.981a16.773,16.773,0,0,0-6.145,1.162,5.116,5.116,0,0,0-2.579,2.526A67.931,67.931,0,0,0,5.6,20.389a122.72,122.72,0,0,0-3.59,14.869,4.373,4.373,0,0,0,1.564,4.149c4.041,3.688,30.61,2.545,40.1,2.545,14.638,0,15.913-5.149,16.266-7.709.731-5.3,2.221-13.849,3.134-18.635C64.458,8.35,59.721,8.164,58.4,8.095m2.83,7.16c-.843,4.443-2.383,13.187-3.148,18.733-.23,1.662-.839,6.086-14.4,6.086-1.574,0-3.585.029-5.914.064-3.1.049-6.625.1-10.274.1C9.9,40.24,5.753,38.847,4.841,38.018L4.8,37.979l-.044-.034a2.5,2.5,0,0,1-.9-2.369A121.191,121.191,0,0,1,7.391,20.968a65.929,65.929,0,0,1,2.937-7.4,3.221,3.221,0,0,1,1.628-1.6,15.008,15.008,0,0,1,5.458-1.005c2.089-.069,5.036-.255,8.44-.466,6.8-.427,29.816-.814,32.331-.525l.24.025a3.272,3.272,0,0,1,2.462,1c.6.8.716,2.28.338,4.271" transform="translate(7.605 31.005)" fill="#0b3053"/><g transform="translate(11.432 40.868)" opacity="0.85"><g clip-path="url(#o)"><path d="M59.732,13.725c-.843,4.438-2.383,13.187-3.148,18.733-.23,1.662-.839,6.086-14.4,6.086-1.574,0-3.585.029-5.919.064-1.844.029-3.835.059-5.914.078L28.7,38.7c-.446,0-.893,0-1.344,0s-.907,0-1.363,0h0c-1.594,0-3.075-.015-4.453-.034-.137,0-.275,0-.407-.01-.294,0-.579,0-.858-.015-.77-.015-1.505-.034-2.207-.054-.417-.02-.819-.034-1.211-.049-1.177-.039-2.251-.1-3.237-.162q-.25-.007-.485-.029c-.319-.02-.628-.039-.927-.064h-.015c-.289-.025-.579-.049-.853-.069l-.142-.015c-.481-.044-.932-.083-1.353-.128l-.064-.01c-.368-.039-.711-.083-1.04-.123-.667-.083-1.25-.177-1.765-.265-2.285-.4-3.237-.848-3.624-1.2L3.3,36.454l-.039-.039a2.5,2.5,0,0,1-.9-2.369A121.963,121.963,0,0,1,5.892,19.438a66.707,66.707,0,0,1,2.942-7.4,3.24,3.24,0,0,1,1.628-1.6,15.008,15.008,0,0,1,5.458-1.005c2.089-.074,5.031-.255,8.444-.471,1.162-.069,2.81-.147,4.747-.211,5.9-.206,14.52-.368,20.6-.4,3.541-.02,6.213,0,6.983.093l.235.025a3.275,3.275,0,0,1,2.467,1c.6.8.716,2.28.338,4.271" transform="translate(-2.333 -8.334)" fill="#81bcf7"/></g></g><g transform="translate(16.07 40.876)" opacity="0.2" style="mix-blend-mode:screen;isolation:isolate"><g clip-path="url(#p)"><path d="M46.014,8.335,26.654,38.68l-1.643.015H23.662c-.451,0-.907,0-1.358,0h0c-1.594,0-3.075-.01-4.458-.034-.137,0-.275,0-.407,0l-.858-.015q-1.148-.022-2.207-.059c-.412-.015-.819-.025-1.211-.044-1.177-.039-2.251-.1-3.237-.162-.162,0-.324-.02-.485-.029-.319-.02-.623-.039-.922-.064H8.5l-.853-.074L7.5,38.2c-.481-.039-.932-.088-1.358-.132l-.064,0c-.363-.039-.711-.078-1.04-.127-.662-.078-1.246-.172-1.765-.26L25.418,8.737c5.9-.206,14.52-.368,20.6-.4" transform="translate(-3.277 -8.336)" fill="#81bcf7"/></g></g><path d="M3.913,18.359l35.058.755a1,1,0,0,1,.986,1.005V30.741A1.007,1.007,0,0,1,38.9,31.747L3.839,29.952a1,1,0,0,1-.956-1.005V19.364a1.009,1.009,0,0,1,1.03-1.005" transform="translate(11.255 71.672)" fill="#0b3053"/><path d="M3.889,18.359a1.007,1.007,0,0,0-1.005,1.005v9.582a1,1,0,0,0,.956,1.005L38.9,31.747h.049a1,1,0,0,0,1.005-1.005V20.119a1,1,0,0,0-.981-1.005L3.909,18.359h-.02" transform="translate(11.259 71.672)" fill="#072035"/><line y2="12.098" transform="translate(24.096 90.027)" fill="none" stroke="#fcbf38" stroke-miterlimit="10" stroke-width="6.272"/><line y2="12.662" transform="translate(41.256 90.43)" fill="none" stroke="#fcbf38" stroke-miterlimit="10" stroke-width="6.272"/><line x2="38.353" y2="1.226" transform="translate(13.5 93.603)" fill="none" stroke="#fcbf38" stroke-miterlimit="10" stroke-width="6.272"/><line x2="38.353" y2="1.226" transform="translate(13.5 98.623)" fill="none" stroke="#fcbf38" stroke-miterlimit="10" stroke-width="6.272"/><path d="M5.965,20.922,2.027,22.006a1.844,1.844,0,0,0-1.353,1.78v3.859A4.051,4.051,0,0,0,4.44,31.691l40.815,2.947c.593.044,1.192.059,1.79.049l17.316-.275a1.136,1.136,0,0,0,1.133-1.1V23.7l-15.447.554c-.329.015-.662.01-.991,0L7.618,22.138a1.858,1.858,0,0,1-1.653-1.216" transform="translate(2.631 81.678)" fill="#81bcf7"/><g transform="translate(3.61 102.598)" opacity="0.4" style="mix-blend-mode:multiply;isolation:isolate"><g clip-path="url(#q)"><path d="M48.814,24.252,7.371,22.138a1.857,1.857,0,0,1-1.648-1.216L1.785,22.006a1.848,1.848,0,0,0-1.049.77H.814l6.63.834c.338.039.677.069,1.015.083l36.534,1.618s18.429.132,20.258-1.608L49.8,24.262c-.329.01-.662,0-.991-.01" transform="translate(-0.737 -20.921)" fill="#81bcf7"/></g></g><g transform="translate(9.755 106.493)" opacity="0.6" style="mix-blend-mode:multiply;isolation:isolate"><g clip-path="url(#r)"><path d="M7.516,27.74l-3.688-.181a1.939,1.939,0,0,1-1.839-1.937V23.655a1.94,1.94,0,0,1,2.035-1.937l3.683.181a1.939,1.939,0,0,1,1.844,1.937V25.8A1.94,1.94,0,0,1,7.516,27.74" transform="translate(-1.99 -21.718)" fill="#81bcf7"/><path d="M13.222,28.047l-3.688-.181A1.939,1.939,0,0,1,7.7,25.928V23.962A1.94,1.94,0,0,1,9.73,22.025l3.683.181a1.939,1.939,0,0,1,1.844,1.937V26.11a1.94,1.94,0,0,1-2.035,1.937" transform="translate(20.285 -20.519)" fill="#81bcf7"/></g></g><g transform="translate(10.005 106.927)" opacity="0.6" style="mix-blend-mode:multiply;isolation:isolate"><g clip-path="url(#s)"><path d="M8.351,21.8a1.9,1.9,0,0,1,.25.937v1.966a1.94,1.94,0,0,1-2.035,1.937l-3.683-.186a1.961,1.961,0,0,1-.843-.245,1.935,1.935,0,0,0,1.594,1l3.688.181a1.938,1.938,0,0,0,2.03-1.937V23.491a1.928,1.928,0,0,0-1-1.687" transform="translate(-2.041 -21.805)" fill="#81bcf7"/><path d="M14.056,22.111a1.9,1.9,0,0,1,.25.937v1.966a1.94,1.94,0,0,1-2.035,1.937l-3.683-.186a1.961,1.961,0,0,1-.843-.245,1.935,1.935,0,0,0,1.594,1l3.683.181a1.94,1.94,0,0,0,2.035-1.937V23.8a1.928,1.928,0,0,0-1-1.687" transform="translate(20.231 -20.607)" fill="#81bcf7"/></g></g><path d="M10.917,24.317V38.053A1.448,1.448,0,0,0,12.369,39.5h9.151a1.451,1.451,0,0,0,1.452-1.452v-19.9a1.439,1.439,0,0,0-1.849-1.378,25.314,25.314,0,0,0-4.791,2.344c-1.883,1.133-3.163,1.962-4,2.535a3.211,3.211,0,0,0-1.412,2.668" transform="translate(42.619 65.233)" fill="#d6e6fd"/><path d="M11.147,26.129V20.882a1.524,1.524,0,0,1,1.545-1.52l6.758.108a1.516,1.516,0,0,1,1.5,1.52v5.139a1.522,1.522,0,0,1-1.52,1.52H12.667a1.522,1.522,0,0,1-1.52-1.52" transform="translate(43.517 75.588)" fill="#b7d7fd"/><path d="M11.147,25.568V23.881a2.664,2.664,0,0,1,1.187-2.226c.819-.549,2.006-1.314,3.683-2.32A24.524,24.524,0,0,1,20.548,17.1l.088-.01a.31.31,0,0,1,.309.309v8.268a1.521,1.521,0,0,1-1.545,1.52l-6.758-.1a1.523,1.523,0,0,1-1.5-1.52" transform="translate(43.517 66.734)" fill="#b7d7fd"/><g transform="translate(54.765 83.826)" opacity="0.3" style="mix-blend-mode:multiply;isolation:isolate"><g clip-path="url(#t)"><path d="M19.946,19.409a1.472,1.472,0,0,1,.1.53v5.139a1.522,1.522,0,0,1-1.52,1.52H11.771a1.541,1.541,0,0,1-.6-.123,1.513,1.513,0,0,0,1.422.991h6.753a1.518,1.518,0,0,0,1.52-1.52V20.807a1.523,1.523,0,0,0-.917-1.4" transform="translate(-11.166 -8.055)" fill="#b7d7fd"/><path d="M20.559,17.094l-.093.015c-.128.039-.275.088-.422.142v7.557a1.52,1.52,0,0,1-1.54,1.52l-6.758-.108a1.423,1.423,0,0,1-.579-.123,1.518,1.518,0,0,0,1.4.991l6.758.108a1.52,1.52,0,0,0,1.54-1.52V17.4a.306.306,0,0,0-.3-.309" transform="translate(-11.166 -17.092)" fill="#b7d7fd"/></g></g><g transform="translate(54.673 84.316)" opacity="0.4" style="mix-blend-mode:multiply;isolation:isolate"><g clip-path="url(#u)"><path d="M19.3,17.194l-3.1,3.913a5.74,5.74,0,0,1-4.5,2.172h-.554a2.685,2.685,0,0,1,1.177-2.015c.819-.549,2.006-1.309,3.683-2.32a33.979,33.979,0,0,1,3.3-1.751" transform="translate(-11.149 -17.192)" fill="#b7d7fd"/></g></g><g transform="translate(54.666 94.95)" opacity="0.4" style="mix-blend-mode:multiply;isolation:isolate"><g clip-path="url(#v)"><path d="M14.771,19.4v1.756A1.451,1.451,0,0,1,13.319,22.6H11.147V20.882a1.524,1.524,0,0,1,1.545-1.52Z" transform="translate(-11.149 -19.362)" fill="#b7d7fd"/></g></g><path d="M5.885,21.331V35.071a1.455,1.455,0,0,1-1.452,1.452H2.354A143.369,143.369,0,0,1,1.7,16.883c1.231.755,2.128,1.349,2.776,1.78a3.219,3.219,0,0,1,1.407,2.668" transform="translate(6.291 65.91)" fill="#d6e6fd"/><path d="M4.7,20.411v5.242a1.523,1.523,0,0,1-1.52,1.525H2.147c-.25-2.741-.422-5.5-.52-8.268l1.525-.02A1.521,1.521,0,0,1,4.7,20.411" transform="translate(6.352 73.749)" fill="#b7d7fd"/><path d="M4.759,20.771v1.687a1.516,1.516,0,0,1-1.5,1.52L1.659,24q-.088-3.347-.015-6.7c.8.5,1.432.907,1.927,1.241a2.685,2.685,0,0,1,1.187,2.231" transform="translate(6.29 67.534)" fill="#b7d7fd"/><g transform="translate(7.929 90.518)" opacity="0.3" style="mix-blend-mode:multiply;isolation:isolate"><g clip-path="url(#w)"><path d="M4.247,20.379a1.525,1.525,0,0,1-1.422.991H1.8c-.025-.289-.054-.579-.078-.868H3.644a1.559,1.559,0,0,0,.6-.123" transform="translate(-1.226 -10.96)" fill="#b7d7fd"/><path d="M4.638,18.458a1.516,1.516,0,0,1-1.4.991l-1.6.029c-.01-.289-.015-.574-.02-.858l2.442-.039a1.458,1.458,0,0,0,.579-.123" transform="translate(-1.617 -18.46)" fill="#b7d7fd"/></g></g><g transform="translate(7.907 84.835)" opacity="0.4" style="mix-blend-mode:multiply;isolation:isolate"><g clip-path="url(#x)"><path d="M4.747,20.555H4.192a5.742,5.742,0,0,1-2.579-.613c0-.878.01-1.76.029-2.643.794.5,1.427.907,1.922,1.241a2.676,2.676,0,0,1,1.182,2.015" transform="translate(-1.61 -17.3)" fill="#b7d7fd"/></g></g><g transform="translate(7.982 92.638)" opacity="0.4" style="mix-blend-mode:multiply;isolation:isolate"><g clip-path="url(#y)"><path d="M4.7,20.41v1.721H2.524a1.432,1.432,0,0,1-.76-.216c-.054-1-.1-2-.137-3l1.525-.029A1.527,1.527,0,0,1,4.7,20.41" transform="translate(-1.63 -18.893)" fill="#b7d7fd"/></g></g><path d="M21.806,25.892h0A1.907,1.907,0,0,1,19.9,23.984V17.531a1.908,1.908,0,0,1,3.815,0v6.453a1.907,1.907,0,0,1-1.908,1.908" transform="translate(77.679 60.991)" fill="#0b3053"/><path d="M20.23,8.011c1.736,1.314,2.118,3.722,2.339,5.89a253.022,253.022,0,0,1,1.319,27.192" transform="translate(78.975 31.275)" fill="none" stroke="#fc9a38" stroke-linecap="round" stroke-linejoin="round" stroke-width="1"/><path d="M21.093,15.144l-.132,14.712" transform="translate(81.829 59.121)" fill="none" stroke="#fc9a38" stroke-linecap="round" stroke-linejoin="round" stroke-width="1"/><path d="M16.448,36.139l1.584-6.61A14.193,14.193,0,0,1,30.856,18.647l5.963-.4" transform="translate(64.211 71.227)" fill="none" stroke="#fc9a38" stroke-linecap="round" stroke-linejoin="round" stroke-width="1"/><path d="M10.917,9.665H7.989V8.2a1.464,1.464,0,1,1,2.928,0Z" transform="translate(31.188 26.301)" fill="#fc6a64"/><path d="M11.5,8.029H7.922a.794.794,0,0,1,.794-.794h1.991a.794.794,0,0,1,.794.794" transform="translate(30.927 28.246)" fill="#0b3053"/><g transform="translate(39.176 33.037)" opacity="0.4" style="mix-blend-mode:screen;isolation:isolate"><g clip-path="url(#z)"><path d="M8.728,8.537A1.462,1.462,0,0,0,10.19,7.075v0l0-.137a1.465,1.465,0,0,0-2.2,1.27v.333Z" transform="translate(-7.992 -6.736)" fill="#fc6a64"/></g></g><path d="M12.316,9.665H9.388V8.2a1.464,1.464,0,1,1,2.928,0Z" transform="translate(36.65 26.301)" fill="#fc6a64"/><path d="M12.9,8.029H9.321a.794.794,0,0,1,.794-.794h1.991a.794.794,0,0,1,.794.794" transform="translate(36.388 28.246)" fill="#0b3053"/><g transform="translate(46.037 33.037)" opacity="0.4" style="mix-blend-mode:screen;isolation:isolate"><g clip-path="url(#z)"><path d="M10.127,8.537a1.462,1.462,0,0,0,1.461-1.461v0l0-.137a1.465,1.465,0,0,0-2.2,1.27v.333Z" transform="translate(-9.392 -6.736)" fill="#fc6a64"/></g></g><path d="M13.715,9.665H10.787V8.2a1.464,1.464,0,1,1,2.928,0Z" transform="translate(42.111 26.301)" fill="#fc6a64"/><path d="M14.3,8.029h-3.58a.794.794,0,0,1,.794-.794h1.991a.794.794,0,0,1,.794.794" transform="translate(41.853 28.246)" fill="#0b3053"/><g transform="translate(52.899 33.037)" opacity="0.4" style="mix-blend-mode:screen;isolation:isolate"><g clip-path="url(#z)"><path d="M11.527,8.537a1.462,1.462,0,0,0,1.461-1.461v0l0-.137a1.465,1.465,0,0,0-2.2,1.27v.333Z" transform="translate(-10.787 -6.736)" fill="#fc6a64"/></g></g></g></g></g></g></g></g></svg>