<svg xmlns="http://www.w3.org/2000/svg" width="60.819" height="68.864" viewBox="0 0 60.819 68.864"><g transform="translate(-29.759 0)"><path d="M144.2,10.07c-.51-13.429-19.765-13.426-20.273,0v34.67c-8.7,8.748-2.4,24.014,9.936,24.12,12.64.218,19.129-15.23,10.338-24.12Zm-3.019,51.819a10.066,10.066,0,0,1-7.262,2.918,10.184,10.184,0,0,1-5.937-18.3V10.07a6.082,6.082,0,0,1,12.164,0V46.512a10.217,10.217,0,0,1,1.035,15.377Z" transform="translate(-77.946 0)" fill="#7c952d"/><path d="M188.048,191.215v-26.7h-4.055v26.7a6.082,6.082,0,1,0,4.055,0Zm-2.027,7.761a2.027,2.027,0,1,1,2.027-2.027A2.03,2.03,0,0,1,186.021,198.975Z" transform="translate(-129.907 -142.277)" fill="#7c952d"/><path d="M29.759,44.511H41.923v4.055H29.759Z" transform="translate(0 -38.495)" fill="#7c952d"/><path d="M59.759,104.511h8.109v4.055H59.759Z" transform="translate(-25.945 -90.386)" fill="#7c952d"/><path d="M29.759,164.511H41.923v4.055H29.759Z" transform="translate(0 -142.277)" fill="#7c952d"/><path d="M59.759,224.511h8.109v4.055H59.759Z" transform="translate(-25.945 -194.168)" fill="#7c952d"/><path d="M29.759,284.511H41.923v4.055H29.759Z" transform="translate(0 -246.058)" fill="#7c952d"/><path d="M357.978,45.326l-4.866,3.649V14.511h-4.055V48.975l-4.866-3.649-2.433,3.244,9.326,6.994,9.326-6.994Z" transform="translate(-269.832 -12.55)" fill="#7c952d"/></g></svg>