<svg xmlns="http://www.w3.org/2000/svg" width="190" height="124" viewBox="0 0 190 124"><g transform="translate(-180.319 -1760)"><rect width="190" height="124" transform="translate(180.319 1760)" fill="#eef7fe"/><g transform="translate(219.213 1776.798)"><g transform="translate(14.109 36.118)"><path d="M75.714,256.492H22.056a1.782,1.782,0,0,1-1.782-1.782v-50.2a1.782,1.782,0,0,1,1.782-1.782H75.714A1.782,1.782,0,0,1,77.5,204.51v50.2A1.782,1.782,0,0,1,75.714,256.492Z" transform="translate(-20.274 -202.728)" fill="#e2ae83"/></g><g transform="translate(54.559 36.118)"><path d="M262.3,202.728H247.31V225.27a6.243,6.243,0,0,0,6.236,6.236h10.537v-27A1.782,1.782,0,0,0,262.3,202.728Z" transform="translate(-247.31 -202.728)" fill="#d39c72"/></g><g transform="translate(14.109 36.118)"><path d="M25.229,254.71v-50.2a1.782,1.782,0,0,1,1.782-1.782H22.056a1.782,1.782,0,0,0-1.782,1.782v50.2a1.782,1.782,0,0,0,1.782,1.782H27.01A1.782,1.782,0,0,1,25.229,254.71Z" transform="translate(-20.274 -202.728)" fill="#d39c72"/></g><g transform="translate(36.727 36.118)"><path d="M157.766,218.286l-4-3.165a.891.891,0,0,0-1.106,0l-4,3.165a.891.891,0,0,1-1.444-.7v-14.86H159.21v14.86A.891.891,0,0,1,157.766,218.286Z" transform="translate(-147.223 -202.728)" fill="#dc4955"/></g><g transform="translate(22.618 59.152)"><path d="M71.879,347.837h3.285a.891.891,0,0,0,.891-.891v-8.892H78.24a.891.891,0,0,0,.613-1.538l-4.5-4.259a.891.891,0,0,0-1.2-.021l-4.822,4.259a.891.891,0,0,0,.59,1.559h2.066v8.892A.891.891,0,0,0,71.879,347.837Z" transform="translate(-68.03 -332.013)" fill="#f1f6f7"/></g><g transform="translate(59.012 12.655)"><path d="M274.091,118.818h35.528a1.782,1.782,0,0,0,1.782-1.782V72.813a1.782,1.782,0,0,0-1.782-1.782H274.091a1.782,1.782,0,0,0-1.782,1.782v44.224A1.782,1.782,0,0,0,274.091,118.818Z" transform="translate(-272.309 -71.031)" fill="#f1f6f7"/></g><g transform="translate(59.012 12.655)"><path d="M277.058,117.037V72.813a1.782,1.782,0,0,1,1.782-1.782h-4.749a1.782,1.782,0,0,0-1.782,1.782v44.224a1.782,1.782,0,0,0,1.782,1.782h4.749A1.782,1.782,0,0,1,277.058,117.037Z" transform="translate(-272.309 -71.031)" fill="#d2e4e7"/></g><g transform="translate(68.776 1.335)"><path d="M344.893,13.913H342.44a1.063,1.063,0,0,1-1.059-1.208,4.539,4.539,0,1,0-9.028-.67,4.494,4.494,0,0,0,.048.658,1.08,1.08,0,0,1-1.079,1.22h-2.431a1.782,1.782,0,0,0-1.782,1.782v5.114a1.782,1.782,0,0,0,1.782,1.782h16a1.782,1.782,0,0,0,1.782-1.782V15.695A1.782,1.782,0,0,0,344.893,13.913Z" transform="translate(-327.11 -7.496)" fill="#9bb9c3"/></g><g transform="translate(68.776 1.335)"><path d="M330.873,20.809V15.7a1.782,1.782,0,0,1,1.782-1.782h2.431a1.08,1.08,0,0,0,1.079-1.22A4.536,4.536,0,0,1,338.774,7.9a4.464,4.464,0,0,0-1.422-.385,4.54,4.54,0,0,0-5,4.516,4.494,4.494,0,0,0,.048.658,1.08,1.08,0,0,1-1.079,1.22h-2.431A1.782,1.782,0,0,0,327.11,15.7v5.114a1.782,1.782,0,0,0,1.782,1.782h3.763A1.782,1.782,0,0,1,330.873,20.809Z" transform="translate(-327.11 -7.497)" fill="#87a0af"/></g><g transform="translate(12.773 0)"><path d="M71.331,338.631a1.336,1.336,0,0,0-1.336,1.336V361.4a.446.446,0,0,1-.445.445H15.891a.446.446,0,0,1-.445-.445V333.883a1.336,1.336,0,0,0-2.672,0V361.4a3.121,3.121,0,0,0,3.118,3.118H69.549a3.121,3.121,0,0,0,3.118-3.118V339.967A1.336,1.336,0,0,0,71.331,338.631Z" transform="translate(-12.773 -273.3)"/><path d="M52.326,445.146a1.336,1.336,0,0,0,1.336,1.336H67.569a1.336,1.336,0,1,0,0-2.672H53.662A1.336,1.336,0,0,0,52.326,445.146Z" transform="translate(-45.279 -364.74)"/><path d="M65.712,342.99H69a2.229,2.229,0,0,0,2.227-2.227v-7.556h.848a2.227,2.227,0,0,0,1.532-3.844L69.109,325.1a2.215,2.215,0,0,0-3.006-.052l-4.822,4.259a2.227,2.227,0,0,0,1.474,3.9h.73v7.556A2.23,2.23,0,0,0,65.712,342.99Zm1.855-15.666,3.388,3.21H69.887a1.336,1.336,0,0,0-1.336,1.336v8.447H66.157v-8.447a1.336,1.336,0,0,0-1.336-1.336h-.889Z" transform="translate(-52.018 -266.678)"/><path d="M252.439,446.482h8.595a1.336,1.336,0,1,0,0-2.672h-8.595a1.336,1.336,0,1,0,0,2.672Z" transform="translate(-208.642 -364.74)"/><path d="M252.439,416h8.595a1.336,1.336,0,0,0,0-2.672h-8.595a1.336,1.336,0,1,0,0,2.672Z" transform="translate(-208.642 -339.69)"/><path d="M96.322,11.318H89.677V9.534a3.121,3.121,0,0,0-3.118-3.118H84.408a5.875,5.875,0,1,0-11.725-.542c0,.181.009.362.025.542H70.558A3.121,3.121,0,0,0,67.44,9.534v1.785H60.794a3.121,3.121,0,0,0-3.118,3.118V24.784a1.336,1.336,0,0,0,2.672,0V14.436a.446.446,0,0,1,.445-.445H67.44v.657a3.121,3.121,0,0,0,3.118,3.118h16a3.121,3.121,0,0,0,3.118-3.118v-.657h6.646a.446.446,0,0,1,.445.445V58.66a.446.446,0,0,1-.445.445H60.794a.446.446,0,0,1-.445-.445V31.294a1.336,1.336,0,1,0-2.672,0v3.488H15.891A3.121,3.121,0,0,0,12.773,37.9V54.084a1.336,1.336,0,1,0,2.672,0V37.9a.446.446,0,0,1,.445-.445h19.5V50.978A2.227,2.227,0,0,0,39,52.724l3.72-2.946,3.72,2.946a2.227,2.227,0,0,0,3.61-1.746V37.454h7.627V58.66a3.121,3.121,0,0,0,3.118,3.118H96.322A3.121,3.121,0,0,0,99.44,58.66V14.436a3.121,3.121,0,0,0-3.117-3.118ZM87,14.647a.446.446,0,0,1-.445.445h-16a.446.446,0,0,1-.445-.445V9.534a.446.446,0,0,1,.445-.445h2.431a2.434,2.434,0,0,0,1.844-.845,2.385,2.385,0,0,0,.557-1.908,3.16,3.16,0,0,1-.034-.461,3.2,3.2,0,1,1,6.37.47,2.375,2.375,0,0,0,.551,1.9,2.411,2.411,0,0,0,1.83.84h2.453A.446.446,0,0,1,87,9.534v5.114ZM47.377,50.057,44.1,47.464a2.219,2.219,0,0,0-2.765,0l-3.274,2.593v-12.6h9.314v12.6Z" transform="translate(-12.773 0)"/><path d="M317.753,123a1.336,1.336,0,0,0-1.89,0l-2.54,2.54-.8-.8a1.336,1.336,0,0,0-1.89,1.89l1.742,1.742a1.336,1.336,0,0,0,1.89,0l3.485-3.485A1.337,1.337,0,0,0,317.753,123Z" transform="translate(-257.247 -100.766)"/><path d="M375.677,135.063h12.8a1.336,1.336,0,0,0,0-2.672h-12.8a1.336,1.336,0,0,0,0,2.672Z" transform="translate(-309.923 -108.804)"/><path d="M315.863,168.545l-2.54,2.54-.8-.8a1.336,1.336,0,0,0-1.89,1.89l1.742,1.742a1.336,1.336,0,0,0,1.89,0l3.485-3.485a1.336,1.336,0,1,0-1.89-1.89Z" transform="translate(-257.246 -138.195)"/><path d="M375.677,180.605h12.8a1.336,1.336,0,1,0,0-2.672h-12.8a1.336,1.336,0,1,0,0,2.672Z" transform="translate(-309.923 -146.232)"/><path d="M310.636,217.718l1.742,1.742a1.336,1.336,0,0,0,1.89,0l3.485-3.485a1.336,1.336,0,1,0-1.89-1.89l-2.54,2.54-.8-.8a1.336,1.336,0,0,0-1.89,1.89Z" transform="translate(-257.247 -175.622)"/><path d="M375.677,226.147h12.8a1.336,1.336,0,1,0,0-2.672h-12.8a1.336,1.336,0,1,0,0,2.672Z" transform="translate(-309.923 -183.66)"/><path d="M315.863,259.628l-2.54,2.54-.8-.8a1.336,1.336,0,0,0-1.89,1.89L312.378,265a1.336,1.336,0,0,0,1.89,0l3.485-3.485a1.336,1.336,0,1,0-1.89-1.89Z" transform="translate(-257.246 -213.05)"/><path d="M375.677,271.688h12.8a1.336,1.336,0,1,0,0-2.672h-12.8a1.336,1.336,0,1,0,0,2.672Z" transform="translate(-309.923 -221.087)"/></g></g></g></svg>