<svg xmlns="http://www.w3.org/2000/svg" xmlns:xlink="http://www.w3.org/1999/xlink" width="125.38" height="104.514" viewBox="0 0 125.38 104.514"><defs><clipPath id="a"><rect width="125.38" height="88.152" fill="none"/></clipPath><clipPath id="c"><rect width="43.192" height="59.25" fill="none"/></clipPath></defs><g transform="translate(11714.06 11915.747)"><g transform="translate(-374.151 418.303)"><g transform="translate(-11321.979 -12334.05)"><path d="M216.369,105.245h0c12.515-16.739-1.1-40.32-21.854-37.851-8.238-19.208-35.468-19.208-43.707,0-20.753-2.469-34.369,21.112-21.854,37.851-12.515,16.739,1.1,40.32,21.854,37.851,8.238,19.208,35.468,19.208,43.707,0C215.268,145.565,228.883,121.984,216.369,105.245Z" transform="translate(-124.157 -52.988)" fill="#fff"/></g><g transform="translate(-11339.908 -12325.868)"><g clip-path="url(#a)"><g transform="translate(0 0)"><g clip-path="url(#a)"><path d="M44.136,62.508c4.294,1.2,31.369-42.893,29.761-46.293C71.43,10.993,4.164-4.291.259,1.155s37.557,59.58,43.877,61.353" transform="translate(0 0)" fill="#b5b5b5"/><g transform="translate(30.774 3.282)" opacity="0.3" style="mix-blend-mode:multiply;isolation:isolate"><g clip-path="url(#c)"><path d="M32.19,3.434A68.4,68.4,0,0,1,47.771,23.327c5,12.468-2.693,21.937-12.8,29.172,4.952,5.726,8.948,9.7,10.585,10.161,4.294,1.2,31.369-42.893,29.761-46.294C73.92,13.416,51.84,7.255,32.19,3.434" transform="translate(-32.19 -3.434)" fill="#b5b5b5"/></g></g><path d="M82.988,59.623S50.866,38.65,45.223,35.291s-2.817-10.827,4.537-6.324S86.132,52.675,86.132,52.675Z" transform="translate(-1.858 -1.213)" fill="#b5b5b5"/><path d="M79.109,65.959c-.557-1.059,9.207-17.324,11.033-17.624s38.181,22.79,38.7,24.312S118.829,90.773,116.2,90.268,80.278,68.179,79.109,65.959" transform="translate(-3.48 -2.127)" fill="#0089e4"/><path d="M93.55,76.8c9.91,6.587,21.76,13.979,23.285,14.272,2.629.506,13.161-16.1,12.642-17.621-.17-.5-4.224-3.336-9.638-6.9-8.778,3.333-17.5,6.991-26.289,10.249" transform="translate(-4.116 -2.928)" fill="#07b"/><path d="M54.288,41l-1.363-.647c-.436-.2-.949-.489-1.548-.8s-1.249-.7-1.954-1.139l-1.084-.709L47.216,36.9A20.224,20.224,0,0,1,44.964,34.9a10.99,10.99,0,0,1-1.947-2.609,4.938,4.938,0,0,1-.54-1.653,2.319,2.319,0,0,1,.445-1.8,2.6,2.6,0,0,1,1.6-.895,5.959,5.959,0,0,1,1.725-.056,13.482,13.482,0,0,1,3.142.819,28.836,28.836,0,0,1,5.017,2.65c1.384.911,2.479,1.75,3.234,2.349l1.179.949a.161.161,0,0,1-.2.254l0,0-1.208-.9c-.379-.293-.863-.614-1.411-.991s-1.187-.772-1.872-1.22c-.7-.419-1.458-.88-2.292-1.3a25.4,25.4,0,0,0-2.668-1.2,12.91,12.91,0,0,0-2.986-.758,3.125,3.125,0,0,0-2.726.72A2.619,2.619,0,0,0,43.606,32a10.368,10.368,0,0,0,1.819,2.466,22.829,22.829,0,0,0,2.153,1.971l1.082.824,1.049.722c.686.442,1.316.852,1.89,1.184s1.067.634,1.5.85l1.336.7a.161.161,0,0,1-.144.288" transform="translate(-1.867 -1.226)"/><path d="M113.884,87.365l-4.857-2.472-2.344-1.215c-.839-.417-1.667-.967-2.55-1.488l-5.494-3.329-5.324-3.571c-1.708-1.127-3.252-2.249-4.587-3.194L84.3,68.908a.161.161,0,0,1-.037-.225.163.163,0,0,1,.222-.039l4.534,3.022c2.695,1.854,6.357,4.21,9.983,6.622l5.436,3.348c.878.519,1.685,1.086,2.514,1.524l2.316,1.268,4.762,2.653a.161.161,0,0,1-.151.285" transform="translate(-3.706 -3.019)"/><path d="M66.185,34.81s.476-.975,1.223-2.422,1.776-3.354,2.816-5.257c1.014-1.914,2.03-3.828,2.822-5.247s1.34-2.355,1.34-2.355a.161.161,0,0,1,.22-.058.166.166,0,0,1,.064.21s-.456.987-1.164,2.453-1.693,3.4-2.687,5.33c-1.059,1.892-2.122,3.782-2.953,5.181s-1.4,2.322-1.4,2.322a.162.162,0,0,1-.223.053.166.166,0,0,1-.057-.21" transform="translate(-2.911 -0.856)"/><path d="M82.855,52.986s-.816-.462-2.023-1.182-2.791-1.718-4.37-2.723c-1.567-1.024-3.13-2.053-4.283-2.855s-1.912-1.352-1.912-1.352a.161.161,0,0,1-.037-.226.163.163,0,0,1,.21-.046s.815.464,2.021,1.184,2.791,1.718,4.371,2.721c1.567,1.024,3.132,2.052,4.285,2.854s1.912,1.354,1.912,1.354a.161.161,0,0,1-.174.271" transform="translate(-3.089 -1.962)"/><path d="M2.939,2.64l2.008.14c1.276.109,3.1.216,5.287.431s4.74.418,7.466.754c2.729.3,5.635.706,8.541,1.1l4.317.722c1.426.222,2.82.511,4.171.772s2.657.511,3.881.818l3.456.837c1.075.241,2.045.52,2.9.783l2.222.657,1.929.588a.353.353,0,0,1-.178.682l-.016,0-1.96-.438c-1.249-.27-3.009-.74-5.158-1.152l-3.458-.7c-1.224-.264-2.536-.439-3.877-.7-1.344-.244-2.73-.513-4.151-.717l-4.3-.665c-2.889-.41-5.772-.859-8.491-1.189l-7.421-.991L4.853,3.634,2.862,3.341a.353.353,0,0,1,.076-.7" transform="translate(-0.113 -0.116)" fill="#fff"/><path d="M82.982,62.917s.42-.768,1.116-1.871,1.684-2.528,2.722-3.915c1.137-1.332,2.338-2.614,3.267-3.543s1.591-1.5,1.591-1.5a.354.354,0,0,1,.532.458l-.013.02s-.473.736-1.235,1.78c-.382.521-.84,1.117-1.342,1.745s-1.054,1.28-1.6,1.94c-1.038,1.387-2.128,2.735-2.988,3.715s-1.481,1.6-1.481,1.6a.356.356,0,0,1-.564-.423" transform="translate(-3.649 -2.288)" fill="#fff"/></g></g></g></g></g></g></svg>