<svg xmlns="http://www.w3.org/2000/svg" width="190" height="72.367" viewBox="0 0 190 72.367"><g transform="translate(-180.319 -814.028)"><rect width="190" height="72.367" transform="translate(180.319 814.028)" fill="#f6faea"/><g transform="translate(250.982 821.688)"><rect width="28.51" height="35.219" rx="1" transform="translate(12.062 16.255)" fill="#fcf3e0"/><circle cx="9.224" cy="9.224" r="9.224" transform="translate(17.093 19.609)" fill="#557c3e"/><path d="M52.094,10.354h.839a.839.839,0,0,0,.839-.839V7.839A.839.839,0,0,0,52.932,7H41.193a.839.839,0,0,0-.839.839V9.516a.839.839,0,0,0,.839.839h.839v9.02a2.516,2.516,0,0,1-.737,1.78A14.661,14.661,0,0,0,37,31.521V49.766a2.516,2.516,0,0,0,2.516,2.516H54.609a2.516,2.516,0,0,0,2.516-2.516V31.521A14.661,14.661,0,0,0,52.83,21.153a2.516,2.516,0,0,1-.737-1.779Z" transform="translate(-5.652 -0.807)" fill="#f9d467"/><path d="M38.8,11H17v3.354H38.8Z" transform="translate(-2.422 -1.453)" fill="#dbdbdb"/><path d="M53.578,10.354a.839.839,0,0,0,.839-.839V7.839A.839.839,0,0,0,53.578,7H41.839A.839.839,0,0,0,41,7.839V9.516a.839.839,0,0,0,.839.839h.839v6.708H52.74V10.354Z" transform="translate(-6.297 -0.807)" fill="#fff"/><path d="M20,15H39.286v3.354H20Z" transform="translate(-2.907 -2.099)" fill="#dbdbdb"/><path d="M32.708,55.516a5.071,5.071,0,0,1,.272-1.65A4.78,4.78,0,0,0,30.193,53C27.877,53,26,54.5,26,56.354s1.877,3.354,4.193,3.354a4.567,4.567,0,0,0,3.389-1.394A4.78,4.78,0,0,1,32.708,55.516Z" transform="translate(-3.875 -8.234)" fill="#557c3e"/><path d="M19.747,29.284q-.053-.238-.114-.471c-.77-2.955-2.477-5.388-5.818-5.767a6.775,6.775,0,0,0-6.271,2.807C6.22,27.729,6,30.167,5.758,32.384A30.523,30.523,0,0,1,4.2,39.6l-.581,1.6a10.134,10.134,0,0,0,7.417,13.48q.367.068.744.11a10.884,10.884,0,0,0,7.982-2.258,10.073,10.073,0,0,0,2.9-11.7l-.108-.266-.236-.587c-1.388-3.425-1.774-7.126-2.576-10.707Z" transform="translate(-0.162 -3.391)" fill="#97b340"/><path d="M13.353,53.511a9.646,9.646,0,0,1-1.064-.059q-.316-.036-.625-.093a7.935,7.935,0,0,1-5.507-3.95A8.7,8.7,0,0,1,5.521,42.1L6.1,40.5a32.047,32.047,0,0,0,1.645-7.614l.024-.227c.215-2,.437-4.059,1.466-5.518a5.087,5.087,0,0,1,4.711-2.1c.817.092,3.3.375,4.384,4.528q.053.2.1.412c.23,1.028.43,2.1.624,3.126a40.552,40.552,0,0,0,2.034,7.85l.345.846a8.394,8.394,0,0,1-2.386,9.745,9.124,9.124,0,0,1-5.7,1.97Z" transform="translate(-0.485 -3.714)" fill="#a9c358"/><ellipse cx="4.193" cy="5.031" rx="4.193" ry="5.031" transform="translate(8.676 35.542)" fill="#936f46"/><path d="M44,3l.745,3.354.932,4.193h5.031l.932-4.193L52.385,3Z" transform="translate(-6.782 -0.161)" fill="#936f46"/><path d="M34.873,57.992a3.094,3.094,0,0,0,2.481,1.394c1.852,0,3.354-1.877,3.354-4.193S39.206,51,37.354,51a3.43,3.43,0,0,0-3.082,2.542A5.071,5.071,0,0,0,34,55.193a4.78,4.78,0,0,0,.873,2.8Z" transform="translate(-5.167 -7.912)" fill="#557c3e"/><path d="M30.569,37.224c5.031,0,0-9.224,0-9.224S25.538,37.224,30.569,37.224Z" transform="translate(-4.252 -4.198)" fill="#f9d467"/><ellipse cx="2.096" cy="3.354" rx="2.096" ry="3.354" transform="translate(42.93 23.599) rotate(-16.677)" fill="#fce9c0"/><circle cx="0.839" cy="0.839" r="0.839" transform="translate(46.442 30.51)" fill="#fce9c0"/><path d="M51.64,4.677,51,7.557A1.677,1.677,0,0,1,49.367,8.87H47.019a1.677,1.677,0,0,1-1.637-1.313l-.637-2.88L44.372,3H44l.745,3.354.932,4.193h5.031l.932-4.193L52.385,3h-.372Z" transform="translate(-6.782 -0.161)" fill="#6b4b2c"/><path d="M14.155,51.193c-2.077,0-3.8-1.814-4.13-4.193a5.988,5.988,0,0,0-.063.839c0,2.779,1.877,5.031,4.193,5.031s4.193-2.252,4.193-5.031A5.988,5.988,0,0,0,18.285,47c-.334,2.379-2.053,4.193-4.13,4.193Z" transform="translate(-1.286 -7.266)" fill="#6b4b2c"/><path d="M20,15H39.286v1.677H20Z" transform="translate(-2.907 -2.099)" fill="#ccc"/><path d="M19.024,46.87c0-3.236-2.257-5.87-5.031-5.87s-5.031,2.634-5.031,5.87,2.257,5.87,5.031,5.87S19.024,50.106,19.024,46.87Zm-8.385,0c0-2.312,1.5-4.193,3.354-4.193s3.354,1.881,3.354,4.193-1.505,4.193-3.354,4.193S10.639,49.182,10.639,46.87Z" transform="translate(-1.125 -6.297)"/><path d="M47.281,18.568V10.385a1.677,1.677,0,0,0,1.677-1.677V7.031a1.677,1.677,0,0,0-1.677-1.677H45.9l.518-2.334A.839.839,0,0,0,45.6,2H37.218A.839.839,0,0,0,36.4,3.021l.518,2.334H35.541a1.677,1.677,0,0,0-1.677,1.677V8.708H14.578a.839.839,0,0,0-.839.839V12.9a.839.839,0,0,0,.839.839h1.677v1.677H12.9a1.677,1.677,0,0,0-1.677,1.677v1.878a7.539,7.539,0,0,0-4.528,3c-1.4,1.992-1.677,4.493-1.91,6.7L4.76,28.9a29.653,29.653,0,0,1-1.509,7.028l-.58,1.6a11.215,11.215,0,0,0,.819,9.417,10.558,10.558,0,0,0,7.235,5.173q.4.073.8.118a11.991,11.991,0,0,0,1.342.075H48.958a3.354,3.354,0,0,0,3.354-3.354V30.713a15.4,15.4,0,0,0-4.54-10.96,1.686,1.686,0,0,1-.491-1.186ZM38.264,3.677h6.294l-.372,1.677H38.636Zm5.549,3.354-.557,2.516h-3.69l-.558-2.516Zm-8.271,0h1.75l.786,3.536a.839.839,0,0,0,.818.657h5.031a.839.839,0,0,0,.818-.656l.786-3.536h1.75V8.708h-.839a.839.839,0,0,0-.839.839v5.87H37.218V9.547a.839.839,0,0,0-.839-.839h-.839ZM15.416,10.385H35.541v1.677H15.416Zm2.516,3.354H35.541v1.677H17.932Zm17.609,3.354v1.474a1.686,1.686,0,0,1-.491,1.186,15.617,15.617,0,0,0-1.638,1.952,10.047,10.047,0,0,0-14.507.324,6.863,6.863,0,0,0-5.158-3.208,7.561,7.561,0,0,0-.847-.039V17.094ZM32.187,50.635a2.242,2.242,0,0,1-1.766-.97c-.007-.012-.017-.021-.024-.033a3.976,3.976,0,0,1-.725-2.351c0-1.85,1.129-3.354,2.516-3.354s2.516,1.5,2.516,3.354-1.129,3.354-2.516,3.354ZM22.963,48.12c0-1.387,1.5-2.516,3.354-2.516a4.074,4.074,0,0,1,1.815.419,5.983,5.983,0,0,0-.138,1.258,5.746,5.746,0,0,0,.628,2.635,3.941,3.941,0,0,1-2.305.719C24.467,50.635,22.963,49.507,22.963,48.12Zm5.757-3.664a5.792,5.792,0,0,0-5.084.122,11.194,11.194,0,0,0,.1-6.028,9.954,9.954,0,0,0,6.77-.568v4.7A4.5,4.5,0,0,0,28.72,44.455ZM30.51,30.713V36.08a8.484,8.484,0,0,1-7.471.461l-.1-.252a38.559,38.559,0,0,1-1.893-7.372c-.2-1.052-.4-2.141-.641-3.207q-.055-.252-.12-.5a12.17,12.17,0,0,0-.53-1.57,8.347,8.347,0,0,1,12.727-.476,15.4,15.4,0,0,0-1.97,7.552ZM11.028,50.468a8.764,8.764,0,0,1-6.084-4.36,9.538,9.538,0,0,1-.7-8.011l.582-1.6a31.3,31.3,0,0,0,1.6-7.419l.024-.227c.226-2.1.46-4.277,1.614-5.912a5.892,5.892,0,0,1,4.818-2.487,6.037,6.037,0,0,1,.671.038c2.572.293,4.288,2.023,5.1,5.146.038.146.074.293.106.444.233,1.038.434,2.111.63,3.15a39.859,39.859,0,0,0,1.987,7.689l.224.553.12.3a9.238,9.238,0,0,1-2.644,10.722,10.033,10.033,0,0,1-7.372,2.084c-.228-.023-.457-.057-.683-.1Zm9.092-.662a10.116,10.116,0,0,0,1.214-1.133,3.828,3.828,0,0,0,.967,1.963H18.9a11.721,11.721,0,0,0,1.221-.83Zm30.514-.847a1.677,1.677,0,0,1-1.677,1.677H35.3a5.6,5.6,0,0,0,1.077-3.354c0-2.775-1.881-5.031-4.193-5.031V30.713a13.736,13.736,0,0,1,4.048-9.774,3.373,3.373,0,0,0,.983-2.371V17.094H45.6v1.474a3.373,3.373,0,0,0,.983,2.371,13.736,13.736,0,0,1,4.048,9.774Z" transform="translate(0 0)"/><path d="M51.839,54.062a.839.839,0,1,0,0,1.677h2.516a2.516,2.516,0,0,0,2.516-2.516V44.839a.839.839,0,0,0-1.677,0v8.385a.839.839,0,0,1-.839.839Z" transform="translate(-7.912 -6.781)"/><path d="M47.677,56h-.839a.839.839,0,1,0,0,1.677h.839a.839.839,0,0,0,0-1.677Z" transform="translate(-7.105 -8.719)"/><path d="M29.674,27.443c-.359.658-3.458,6.5-1.883,9.154a2.815,2.815,0,0,0,2.62,1.31,2.815,2.815,0,0,0,2.62-1.31c1.573-2.655-1.524-8.5-1.883-9.154a.873.873,0,0,0-1.472,0Zm1.914,8.3c-.125.21-.382.489-1.174.489s-1.052-.279-1.174-.489c-.63-1.06.178-3.773,1.174-6,1,2.224,1.8,4.937,1.171,6Z" transform="translate(-4.093 -4.043)"/></g></g></svg>