<svg xmlns="http://www.w3.org/2000/svg" width="73" height="67.297" viewBox="0 0 73 67.297"><g transform="translate(0 -20)"><g transform="translate(0 20)"><path d="M65.871,20H42.916a1.426,1.426,0,0,0,0,2.852H65.871a4.282,4.282,0,0,1,4.277,4.277V59.813H42.2a17.2,17.2,0,1,0-28.663-2.958L10.47,59.922H2.852V27.129a4.282,4.282,0,0,1,4.277-4.277H30.084a1.426,1.426,0,0,0,0-2.852H7.129A7.137,7.137,0,0,0,0,27.129V65.91a7.158,7.158,0,0,0,.98,3.6,5.258,5.258,0,0,0,8,6.774l3.249-3.249h13.79l-1.329,5.133H23.1a4.563,4.563,0,1,0,0,9.125H49.9a4.563,4.563,0,0,0,0-9.125H48.315l-1.329-5.133H65.871A7.137,7.137,0,0,0,73,65.91V27.129A7.137,7.137,0,0,0,65.871,20ZM28.837,34.638A14.353,14.353,0,1,1,14.484,48.991,14.369,14.369,0,0,1,28.837,34.638ZM7.619,62.773,3.084,67.308a4.271,4.271,0,0,1-.232-1.4V62.773Zm-.659,11.5a2.406,2.406,0,1,1-3.4-3.4L15.095,59.33a17.347,17.347,0,0,0,3.4,3.4Zm44.654,8.463A1.713,1.713,0,0,1,49.9,84.445H23.1a1.711,1.711,0,0,1,0-3.422H49.9A1.713,1.713,0,0,1,51.613,82.734Zm-6.244-4.562H27.631l1.329-5.133H44.04Zm20.5-7.984H15.076l5.9-5.9a17.172,17.172,0,0,0,18.292-1.626H70.148V65.91A4.282,4.282,0,0,1,65.871,70.188Z" transform="translate(0 -20)" fill="#7c952d"/><path d="M133.858,185.924a12.611,12.611,0,0,0,11.211-6.8,1.426,1.426,0,0,0,0-1.319,12.641,12.641,0,0,0-22.423,0,1.426,1.426,0,0,0,0,1.319A12.611,12.611,0,0,0,133.858,185.924Zm0-9.79a2.329,2.329,0,1,1-2.329,2.329A2.331,2.331,0,0,1,133.858,176.134Zm8.306,2.329a9.765,9.765,0,0,1-5.117,4.078,5.171,5.171,0,0,0,0-8.156A9.765,9.765,0,0,1,142.164,178.463Zm-11.5-4.078a5.171,5.171,0,0,0,0,8.156,9.764,9.764,0,0,1-5.118-4.078A9.766,9.766,0,0,1,130.669,174.385Z" transform="translate(-105.021 -149.472)" fill="#7c952d"/><path d="M347.4,134.583a1.426,1.426,0,0,0,1.426,1.426h14.344a1.426,1.426,0,0,0,0-2.852H348.822A1.426,1.426,0,0,0,347.4,134.583Z" transform="translate(-297.865 -117.023)" fill="#7c952d"/><path d="M399.789,88.009a1.426,1.426,0,0,0,0-2.852h-8.254a1.426,1.426,0,0,0,0,2.852Z" transform="translate(-334.488 -75.867)" fill="#7c952d"/><path d="M347.984,85.16a1.429,1.429,0,1,0,1.008.418A1.436,1.436,0,0,0,347.984,85.16Z" transform="translate(-297.148 -75.87)" fill="#7c952d"/><path d="M450.434,183.595a1.425,1.425,0,1,0-1.008.418A1.437,1.437,0,0,0,450.434,183.595Z" transform="translate(-384.125 -158.183)" fill="#7c952d"/><path d="M399.126,184.012a1.427,1.427,0,1,0-1.008-.418A1.435,1.435,0,0,0,399.126,184.012Z" transform="translate(-340.997 -158.182)" fill="#7c952d"/><path d="M349.834,183.595a1.426,1.426,0,1,0-1.008.418A1.435,1.435,0,0,0,349.834,183.595Z" transform="translate(-297.868 -158.183)" fill="#7c952d"/><path d="M348.822,232.009H353.4a1.426,1.426,0,1,0,0-2.852h-4.577a1.426,1.426,0,1,0,0,2.852Z" transform="translate(-297.865 -199.336)" fill="#7c952d"/><path d="M423.5,230.583a1.426,1.426,0,0,0,1.426,1.426h4.7a1.426,1.426,0,1,0,0-2.852h-4.7A1.426,1.426,0,0,0,423.5,230.583Z" transform="translate(-363.118 -199.336)" fill="#7c952d"/><path d="M247.426,22.852a1.427,1.427,0,1,0-1.008-.418A1.435,1.435,0,0,0,247.426,22.852Z" transform="translate(-210.926 -20)" fill="#7c952d"/></g></g></svg>